<?xml version="1.0" standalone="no"?>
<svg version="1.0" xmlns="http://www.w3.org/2000/svg"
 width="512.000000pt" height="512.000000pt" viewBox="0 0 512.000000 512.000000"
 preserveAspectRatio="xMidYMid meet">

<g transform="translate(0,512) scale(0.1000,-0.1000)"
   fill="url(#lc-gradient)" stroke="none">
<path d="M2060 5029 c-80 -44 -233 -126 -340 -182 -107 -55 -253 -132 -325
-170 -159 -84 -516 -273 -605 -318 l-65 -34 -3 -1743 -2 -1742 32 -20 c18 -11
39 -18 46 -15 7 3 10 0 7 -5 -8 -12 152 -93 167 -84 6 4 8 3 4 -4 -8 -13 163
-104 181 -97 7 2 12 0 10 -6 -2 -12 26 -28 328 -186 289 -151 295 -154 295
-149 0 3 -74 43 -165 91 -91 47 -165 89 -165 91 0 3 75 -34 168 -82 433 -225
511 -264 537 -264 20 0 26 -4 21 -16 -4 -11 0 -14 17 -12 15 2 21 -2 19 -12
-2 -13 -1 -13 10 0 19 22 46 23 51 3 4 -16 5 -15 6 2 1 11 6 27 12 35 9 13 10
12 5 -2 -7 -22 12 -35 20 -13 6 14 8 14 19 -1 11 -16 41 -11 31 5 -3 4 5 8 16
8 19 2 382 181 516 255 30 16 56 28 58 25 2 -2 -50 -32 -116 -66 -66 -34 -120
-64 -120 -67 0 -2 81 37 181 87 100 49 179 92 176 95 -3 3 -20 -2 -39 -11 -18
-10 -28 -13 -23 -7 16 17 88 45 80 31 -5 -7 -3 -10 6 -7 8 3 13 10 12 16 -2 7
4 9 14 5 10 -4 14 -2 9 5 -3 6 -1 14 5 18 8 5 9 3 4 -6 -12 -19 8 -11 173 76
78 42 140 79 137 85 -4 5 2 6 11 2 13 -5 15 -3 9 7 -5 9 -4 11 3 6 16 -10 434
202 426 216 -4 7 -2 8 5 4 6 -4 71 24 149 65 75 40 186 98 246 130 59 31 104
59 100 61 -5 3 -3 3 4 1 16 -3 84 30 99 49 7 9 10 141 8 418 -2 479 -1 450
-20 450 -19 0 -199 -90 -460 -230 -110 -59 -299 -158 -420 -220 -121 -62 -263
-136 -315 -165 -52 -29 -245 -130 -427 -224 -183 -94 -354 -184 -380 -199 -27
-16 -56 -31 -66 -35 -10 -4 -15 -11 -12 -17 4 -6 -1 -7 -11 -3 -12 4 -15 3
-10 -5 5 -8 1 -10 -10 -5 -12 4 -15 3 -10 -5 5 -8 1 -10 -10 -5 -11 4 -15 3
-11 -4 11 -17 -31 -5 -96 29 -31 16 -62 26 -69 22 -7 -4 -8 -3 -4 4 8 14 -40
36 -56 26 -6 -4 -8 -2 -5 3 9 14 -6 24 -245 147 -117 61 -213 104 -219 100 -8
-5 -9 -3 -4 6 6 10 4 12 -9 7 -10 -4 -15 -3 -11 3 3 5 -18 21 -47 36 -29 15
-56 32 -60 38 -10 14 -10 2648 0 2661 4 6 41 28 82 49 41 22 134 71 205 111
72 39 192 103 267 141 l138 69 0 363 c0 283 -3 362 -12 362 -7 0 -78 -36 -158
-81z m235 -4097 c-3 -3 -11 0 -18 7 -9 10 -8 11 6 5 10 -3 15 -9 12 -12z
m-1519 -108 c18 -14 18 -14 -6 -3 -31 14 -36 19 -24 19 6 0 19 -7 30 -16z
m2990 -29 c-11 -8 -25 -15 -30 -15 -6 1 0 7 14 15 32 19 40 18 16 0z m-2806
-70 c0 -3 -22 6 -50 20 -27 14 -50 28 -50 30 0 3 23 -6 50 -20 28 -14 50 -28
50 -30z m2760 50 c0 -3 -36 -23 -80 -45 -44 -22 -80 -38 -80 -35 0 4 146 82
158 85 1 0 2 -2 2 -5z m-2570 -150 c0 -3 -27 8 -60 25 -33 17 -60 33 -60 35 0
3 27 -8 60 -25 33 -17 60 -33 60 -35z m2264 -10 c-10 -8 -23 -15 -28 -15 -6 0
-1 7 10 15 10 8 23 15 28 15 6 0 1 -7 -10 -15z m-2209 -15 c3 -6 -1 -7 -9 -4
-18 7 -21 14 -7 14 6 0 13 -4 16 -10z m193 -103 c30 -16 52 -30 50 -33 -5 -5
-118 55 -118 63 0 6 1 5 68 -30z m1612 -91 c0 -2 -7 -7 -16 -10 -8 -3 -12 -2
-9 4 6 10 25 14 25 6z"/>
<path d="M3305 4654 c-55 -31 -239 -128 -410 -216 -170 -89 -364 -191 -430
-228 -66 -37 -204 -111 -307 -164 l-188 -98 0 -1203 0 -1204 143 -77 c78 -42
172 -93 210 -113 l67 -36 43 23 c23 13 186 100 362 194 314 167 361 196 339
204 -6 3 -75 41 -155 85 -79 44 -174 96 -212 115 l-67 34 2 767 3 767 255 130
c140 72 309 160 375 196 66 36 125 66 131 68 11 3 114 -49 234 -118 60 -34
333 -178 664 -349 76 -40 144 -70 151 -67 10 3 13 86 11 382 l-1 378 -60 34
c-33 19 -186 99 -340 179 -154 80 -311 163 -350 183 -297 159 -356 190 -363
190 -4 0 -52 -26 -107 -56z"/>
<path d="M1840 247 c0 -5 222 -128 298 -166 23 -12 42 -20 42 -17 0 2 -62 37
-137 79 -165 89 -203 109 -203 104z"/>
<path d="M2480 125 c-118 -63 -211 -115 -206 -115 15 0 426 217 426 226 0 7 4
9 -220 -111z"/>
<path d="M2327 76 c-4 -10 -1 -13 8 -9 8 3 12 9 9 14 -7 12 -11 11 -17 -5z"/>
<path d="M2215 40 c3 -4 14 -10 25 -13 11 -3 18 -2 15 3 -3 4 -14 10 -25 13
-11 3 -18 2 -15 -3z"/>
</g>
    <defs>
        <linearGradient id="lc-gradient" x1="0%" y1="100%" x2="100%" y2="0%">
            <stop offset="0%" stop-color="#646cff"/>
            <stop offset="100%" stop-color="#7c4dff"/>
        </linearGradient>
    </defs>
</svg>
